# xmcd
#
# Track frame offsets:
#	150
#	16310
#	28812
#	42765
#	53927
#	65110
#	78170
#	93540
#	110090
#	127292
#	143410
#
# Disc length: 2445 seconds
#
# Revision: 5
# Processed by: cddbd v1.5.2PL0 Copyright (c) Steve Scherf et al.
# Submitted via: EasyCDDAExtractor 16.0.1.1
#
DISCID=99098b0b
DTITLE=Junior Brown - Guit With It
DYEAR=1993
DGENRE=Country
TTITLE0=Doin' What Comes Easy to a Fool
TTITLE1=Highway Patrol
TTITLE2=So Close Yet So Far Away
TTITLE3=Sugarfoot Rag
TTITLE4=My Wife Thinks You're Dead
TTITLE5=You Didn't Have to Go All the Way
TTITLE6=Party Lights
TTITLE7=Names and Addresses
TTITLE8=Still Life With Rose
TTITLE9=Holding Pattern
TTITLE10=Guit-Steel Blues
EXTD=
EXTT0=
EXTT1=
EXTT2=
EXTT3=
EXTT4=
EXTT5=
EXTT6=
EXTT7=
EXTT8=
EXTT9=
EXTT10=
PLAYORDER=
